{"title":"47 Ronin (2013) [XviD - Italian English Ac3 5.1 - sub Ita Eng] M","uid":10711202,"size":2147548655,"categoryP":"video","categoryS":"movies","magnet":"?xt=urn:btih:aec821b37009c85311a7be4f21965e9e01608ec5&amp;dn=47+Ronin+%282013%29+%5BXviD+-+Italian+English+Ac3+5.1+-+sub+Ita+Eng%5D+M&amp;tr=udp%3A%2F%2Ftracker.openbittorrent.com%3A80&amp;tr=udp%3A%2F%2Fopen.demonii.com%3A1337&amp;tr=udp%3A%2F%2Ftracker.coppersurfer.tk%3A6969&amp;tr=udp%3A%2F%2Fexodus.desync.com%3A6969","seeders":12,"leechers":1,"uploader":"Freetnt","files":4,"time":1407355129,"description":"47 Ronin (2013) [XviD - Italian English Ac3 5.1 - sub Ita Eng] MIRCrew \n\n\n\n[u]NO FOUND ONLY ORIGINAL RELEASE[/u]\n\n47 Ronin (2013)\n\n[img]http://s19.postimg.org/3x72km40j/827baca10bf7_large.jpg[/img]\n\n[URL=http://www.imdb.com/title/tt1335975/][IMG]http://img197.imageshack.us/img197/1332/imdblogo.gif[/IMG][/URL]  \n\n[img]http://s19.postimage.org/bgh0za7kj/banner_scheda.gif[/img]\n\nTitolo originale \t47 Ronin\nLingua originale \tinglese, giapponese\nPaese di produzione \tUSA\nAnno \t2013\nDurata \t118 min\nColore \tcolore\nAudio \tsonoro\nRapporto \t2,35:1\nGenere \tazione, fantastico\nRegia \tCarl Rinsch\nSoggetto \tChris Morgan, Walter Hamada\nSceneggiatura \tChris Morgan, Hossein Amini\nProduttore \tPamela Abdy, Eric McLeod, Scott Stuber\nProduttore esecutivo \tChris Fenton, Walter Hamada, Erwin Stoff\nCasa di produzione \tH2F Entertainment, Mid Atlantic Films, Moving Picture Company, Stuber Productions\nDistribuzione (Italia) \tUniversal Pictures\nFotografia \tJohn Mathieson\nMontaggio \tCraig Wood\nMusiche \tIlan Eshkeri\nScenografia \tJan Roelfs\nCostumi \tPenny Rose\nTrucco \tAmanda Burns, Amy Byrne, Sharon Nicholas\n\n[IMG]http://s19.postimg.org/lbrasw15f/05c1711ffbb4b64eeab16a412da5c76a.jpg[/IMG]\n\n\n\n[img]http://s19.postimage.org/fbp0flg3z/banner_cast.gif[/img]\n\n\n\n    Keanu Reeves: Kai\n    Cary-Hiroyuki Tagawa: Shogun\n    Hiroyuki Sanada: Kuranosuke Oishi\n    Kou Shibasaki: Mika\n    Tadanobu Asano: Lord Kira\n    Rinko Kikuchi: Mizuki\n    Jin Akanishi: Chikara Oishi\n    Togo Igawa: Lord Tengu\n    Rick Genest: Savage\n    Min Tanaka: Lord Asano\n    Rinko Kikuchi: Witch\n\nDoppiatori italiani\n\n    Francesco Prando: Kai\n    Paolo Lombardi: Shogun\n    Antonio Sanna: Kuranosuke Oishi\n    Benedetta Ponticelli: Mika\n    Alberto Bognanni: Lord Kira\n    Mariano Rigillo: Lord Asano\n    Jolanda Granato: Witch\n\n\n[IMG]http://s19.postimg.org/mybx0dntf/vlcsnap_2014_05_06_18h42m11s185.jpg[/IMG]\n\n[IMG]http://s19.postimg.org/irr2l1o7n/vlcsnap_2014_05_06_18h42m20s18.jpg[/IMG]\n\n[IMG]http://s19.postimg.org/f6v71tjo3/vlcsnap_2014_05_06_18h42m25s71.jpg[/IMG]\n\n\n[img]http://s19.postimage.org/i9hdvjydv/banner_trama.gif[/img]\n\n'700. L'emarginato Kai decide di unirsi ad un gruppo di ronin comandato da Kuranosuke Oishi, che cercano vendetta su Lord Kira dopo che questi ha ucciso il loro signore e bandito il gruppo. Per restituire l'onore al loro feudo e al loro signore, i guerrieri si troveranno ad affrontare delle dure prove, che porteranno......\n[img]http://s19.postimage.org/nwdqt10wj/banner_storyline.gif[/img]\n\nWhile hunting in the forest, Lord Asano of Ako and his samurai find a young half-breed and take him with them to live in the castle. Several years later, Lord Asano holds a tournament to welcome the Shogun to Ako. The night after the tournament, Lord Asano is bewitched into hurting Lord Kira of Nagato, and is punished into committing seppuku by the Shogun. Realizing that it was a Lord Kira's evil plot.....\n\n\n\n\n[img]http://s19.postimage.org/f07k2tzo3/banner_dati_file.gif[/img]\n\n[spoiler]\n\nGeneral\nComplete name                            : C:UsersrobbyDesktop47 Ronin (2013).ita.eng.sub.ita.eng.MIRCrew47 Ronin (2013).ita.eng.sub.ita.eng.MIRCrew.avi\nFormat                                   : AVI\nFormat/Info                              : Audio Video Interleave\nFormat profile                           : OpenDML\nFile size                                : 2.00 GiB\nDuration                                 : 1h 58mn\nOverall bit rate                         : 2 414 Kbps\nWriting application                      : VirtualDubMod 1.5.10.2 (build 2540/release)\nWriting library                          : VirtualDubMod build 2540/release\n\nVideo\nID                                       : 0\nFormat                                   : MPEG-4 Visual\nFormat settings, BVOP                    : Yes\nFormat settings, QPel                    : No\nFormat settings, GMC                     : No warppoints\nFormat settings, Matrix                  : Default (H.263)\nCodec ID                                 : DX50\nCodec ID/Hint                            : DivX 5\nDuration                                 : 1h 58mn\nBit rate                                 : 1 500 Kbps\nWidth                                    : 720 pixels\nHeight                                   : 304 pixels\nDisplay aspect ratio                     : 2.35:1\nFrame rate                               : 23.976 fps\nColor space                              : YUV\nChroma subsampling                       : 4:2:0\nBit depth                                : 8 bits\nScan type                                : Progressive\nCompression mode                         : Lossy\nBits/(Pixel*Frame)                       : 0.286\nStream size                              : 1.24 GiB (62%)\nWriting library                          : Intel(R) MPEG-4 encoder based on Intel(R) IPP 6.1 build 137.20[6.1.137.763]\n\nAudio #1\nID                                       : 1\nFormat                                   : AC-3\nFormat/Info                              : Audio Coding 3\nMode extension                           : CM (complete main)\nCodec ID                                 : 2000\nDuration                                 : 1h 58mn\nBit rate mode                            : Constant\nBit rate                                 : 448 Kbps\nChannel(s)                               : 6 channels\nChannel positions                        : Front: L C R, Side: L R, LFE\nSampling rate                            : 48.0 KHz\nBit depth                                : 16 bits\nCompression mode                         : Lossy\nStream size                              : 380 MiB (19%)\nAlignment                                : Split accross interleaves\nInterleave, duration                     : 42 ms (1.00 video frame)\nInterleave, preload duration             : 500 ms\n\nAudio #2\nID                                       : 2\nFormat                                   : AC-3\nFormat/Info                              : Audio Coding 3\nMode extension                           : CM (complete main)\nCodec ID                                 : 2000\nDuration                                 : 1h 58mn\nBit rate mode                            : Constant\nBit rate                                 : 448 Kbps\nChannel(s)                               : 6 channels\nChannel positions                        : Front: L C R, Side: L R, LFE\nSampling rate                            : 48.0 KHz\nBit depth                                : 16 bits\nCompression mode                         : Lossy\nStream size                              : 380 MiB (19%)\nAlignment                                : Split accross interleaves\nInterleave, duration                     : 42 ms (1.00 video frame)\nInterleave, preload duration             : 500 ms\n\n\n\n[/spoiler]\n\n[/b][/color]\n[/center]","torrent":{"xt":"urn:btih:aec821b37009c85311a7be4f21965e9e01608ec5","amp;dn":"47+Ronin+%282013%29+%5BXviD+-+Italian+English+Ac3+5.1+-+sub+Ita+Eng%5D+M","amp;tr":["udp%3A%2F%2Ftracker.openbittorrent.com%3A80","udp%3A%2F%2Fopen.demonii.com%3A1337","udp%3A%2F%2Ftracker.coppersurfer.tk%3A6969","udp%3A%2F%2Fexodus.desync.com%3A6969"],"infoHash":"aec821b37009c85311a7be4f21965e9e01608ec5","infoHashBuffer":{"type":"Buffer","data":[174,200,33,179,112,9,200,83,17,167,190,79,33,150,94,158,1,96,142,197]},"announce":[],"urlList":[]}}